<svg width="29" height="35" viewBox="0 0 29 35" fill="none" xmlns="http://www.w3.org/2000/svg">
<path d="M20.3 13.8542C19.0675 13.8542 18.4324 14.4885 18.0119 14.9071C17.6871 15.2323 17.5813 15.3125 17.4 15.3125C17.1883 15.3125 17.0114 15.1827 16.6634 14.9144C16.0863 14.4667 15.2961 13.8542 13.775 13.8542C13.5827 13.8542 13.3983 13.931 13.2623 14.0677C13.1264 14.2045 13.05 14.3899 13.05 14.5833C13.05 14.7767 13.1264 14.9622 13.2623 15.0989C13.3983 15.2357 13.5827 15.3125 13.775 15.3125C14.8016 15.3125 15.2772 15.68 15.7789 16.0694C16.2038 16.399 16.6852 16.7708 17.4 16.7708C18.2019 16.7708 18.663 16.3115 19.0327 15.9425C19.3996 15.5765 19.6649 15.3125 20.3 15.3125C20.4923 15.3125 20.6767 15.2357 20.8127 15.0989C20.9486 14.9622 21.025 14.7767 21.025 14.5833C21.025 14.3899 20.9486 14.2045 20.8127 14.0677C20.6767 13.931 20.4923 13.8542 20.3 13.8542ZM25.375 0H3.625C2.66394 0.00115781 1.74258 0.385643 1.06301 1.06912C0.383439 1.75259 0.0011512 2.67925 0 3.64583V31.3542C0 33.3652 1.6269 35 3.625 35H25.375C27.3731 35 29 33.3652 29 31.3542V3.64583C29 1.63479 27.3731 0 25.375 0ZM4.35 33.5417H3.625C2.42585 33.5417 1.45 32.5602 1.45 31.3542V3.64583C1.45 2.43979 2.42585 1.45833 3.625 1.45833H4.35V33.5417ZM21.75 17.4023V22.6042C21.75 22.7922 21.6778 22.973 21.5485 23.1087C21.4832 23.1788 19.9071 24.7917 16.675 24.7917C13.443 24.7917 11.8668 23.1788 11.8015 23.1087C11.6722 22.973 11.6 22.7922 11.6 22.6042V17.4023C9.98905 16.9721 8.7 15.1579 8.7 13.125C8.7 10.3863 10.9113 8.75 13.05 8.75C14.4565 8.75 15.747 9.61042 16.7881 10.6254C16.8867 10.3819 16.9998 10.1675 17.1231 10.01C18.0148 8.8725 19.6417 8.75 20.3 8.75C22.6171 8.75 24.65 10.7946 24.65 13.125C24.65 15.1565 23.361 16.9706 21.75 17.4023Z" fill="black"/>
</svg>
